<?xml version="1.0" encoding="iso-8859-1"?>
<!-- Uploaded to: SVG Repo, www.svgrepo.com, Generator: SVG Repo Mixer Tools -->
<svg version="1.1" id="Layer_1" xmlns="http://www.w3.org/2000/svg" xmlns:xlink="http://www.w3.org/1999/xlink" 
	 viewBox="0 0 512 512" xml:space="preserve">
<path style="fill:#707487;" d="M438.711,385.539l-94.435-23.608H167.724l-94.435,23.608c-27.508,6.878-46.806,31.594-46.806,59.948
	v48.857c0,9.751,7.904,17.655,17.655,17.655h423.724c9.751,0,17.655-7.904,17.655-17.655v-48.857
	C485.517,417.133,466.219,392.417,438.711,385.539z"/>
<g>
	<path style="fill:#5B5D6E;" d="M90.418,452.349l-47.991-47.991c-9.907,11.049-15.944,25.468-15.944,41.13v48.857
		c0,9.75,7.905,17.655,17.655,17.655h61.793v-22.199C105.931,475.754,100.351,462.282,90.418,452.349z"/>
	<path style="fill:#5B5D6E;" d="M421.582,452.349l47.991-47.991c9.907,11.049,15.944,25.468,15.944,41.13v48.857
		c0,9.75-7.905,17.655-17.655,17.655h-61.793v-22.199C406.069,475.754,411.649,462.282,421.582,452.349z"/>
</g>
<rect x="185.379" y="317.793" style="fill:#E6B47D;" width="141.241" height="97.103"/>
<path style="fill:#D2A073;" d="M185.379,317.793v72.063c83.538,10.93,141.241-63.235,141.241-63.235v-8.828H185.379z"/>
<path style="fill:#F0C891;" d="M361.931,194.651v-0.445H150.069v0.445c-10.073,2.046-17.655,10.947-17.655,21.624v17.655
	c0,10.676,7.582,19.578,17.655,21.624v16.236c0,17.709,8.17,34.247,21.771,44.069l39.249,28.346
	c8.031,5.8,17.468,8.896,27.121,8.896h35.582c9.653,0,19.089-3.095,27.121-8.896l39.249-28.346
	c13.601-9.823,21.771-26.361,21.771-44.07v-16.236c10.073-2.046,17.655-10.947,17.655-21.624v-17.655
	C379.586,205.599,372.004,196.697,361.931,194.651z"/>
<path style="fill:#D2A073;" d="M256,314.379c-10.759,0-21.181-2.146-30.13-6.202c-4.439-2.013-6.406-7.245-4.396-11.686
	c2.017-4.431,7.242-6.426,11.69-4.392c13.345,6.051,32.328,6.051,45.673,0c4.457-2.035,9.673-0.047,11.69,4.392
	c2.008,4.439,0.043,9.673-4.396,11.686C277.181,312.233,266.759,314.379,256,314.379z"/>
<g>
	<path style="fill:#5A4137;" d="M211.862,238.345L211.862,238.345c-4.855,0-8.828-3.972-8.828-8.828v-8.828
		c0-4.855,3.972-8.828,8.828-8.828l0,0c4.855,0,8.828,3.972,8.828,8.828v8.828C220.69,234.372,216.717,238.345,211.862,238.345z"/>
	<path style="fill:#5A4137;" d="M300.138,238.345L300.138,238.345c-4.855,0-8.828-3.972-8.828-8.828v-8.828
		c0-4.855,3.972-8.828,8.828-8.828l0,0c4.855,0,8.828,3.972,8.828,8.828v8.828C308.965,234.372,304.993,238.345,300.138,238.345z"/>
</g>
<g>
	<path style="fill:#5B5D6E;" d="M185.379,344.276L256,414.896c0,0-35.31,8.828-61.793,44.138
		c-0.018,0.023-25.042-68.842-32.947-90.599c-1.389-3.825,0.019-8.093,3.404-10.35L185.379,344.276z"/>
	<path style="fill:#5B5D6E;" d="M326.621,344.276L256,414.896c0,0,35.31,8.828,61.793,44.138
		c0.018,0.023,25.042-68.842,32.947-90.599c1.389-3.825-0.019-8.093-3.404-10.35L326.621,344.276z"/>
</g>
<path style="fill:#B9785F;" d="M346.496,25.497c-1.28-8.099-5.664-15.177-12.353-19.923c-6.681-4.742-14.81-6.539-22.875-5.081
	L256,10.54L200.733,0.493c-8.043-1.457-16.185,0.341-22.874,5.081c-6.69,4.746-11.073,11.823-12.353,19.923l-17.961,113.75
	c-0.401,2.548,0.332,5.146,2.008,7.107c1.677,1.965,4.129,3.095,6.711,3.095h199.474c2.582,0,5.035-1.129,6.711-3.095
	c1.677-1.961,2.41-4.561,2.008-7.107L346.496,25.497z"/>
<path style="fill:#9B5F50;" d="M361.931,158.896H150.069c-4.875,0-8.828-3.953-8.828-8.828v-8.828c0-4.875,3.953-8.828,8.828-8.828
	h211.862c4.875,0,8.828,3.953,8.828,8.828v8.828C370.759,154.944,366.806,158.896,361.931,158.896z"/>
<path style="fill:#B9785F;" d="M458.71,166.892l-87.951-7.996H141.241l-87.951,7.996c-5.184,0.471-9.152,4.818-9.152,10.023v0.052
	c0,3.722,2.056,7.087,5.312,8.892C86.644,206.475,165.149,220.69,256,220.69s169.356-14.215,206.55-34.831
	c3.256-1.804,5.312-5.17,5.312-8.892v-0.052C467.862,171.71,463.893,167.363,458.71,166.892z"/>
<g>
	<path style="fill:#FFDCA0;" d="M167.724,512h-44.138V368.823c0-4.051,2.756-7.582,6.687-8.564l20.852-5.213
		c4.032-1.009,7.986,1.906,8.216,6.056L167.724,512z"/>
	<path style="fill:#FFDCA0;" d="M344.276,512h44.138V368.823c0-4.051-2.756-7.582-6.687-8.564l-20.852-5.213
		c-4.032-1.009-7.986,1.906-8.216,6.056L344.276,512z"/>
</g>
</svg>